PathFileType	4	(X/Y/Z)	/Users/itak/Documents/Research/Walk-IL/dataset/trc/00059_00006.trc
DataRate	CameraRate	NumFrames	NumMarkers	Units	OrigDataRate	OrigDataStartFrame	OrigNumFrames
100.000000	100.000000	4	53	mm	100.000000	281	750
Frame#	Time	RPSI			LPSI			L3			STRN			T10			C7			CLAV			RBAK			LBAK			LSHO			LUPA			LAEL			LAOL			LWTS			LWPS			LFRA			LIFD			LHPS			LHTS			RSHO			RUPA			RAEL			RAOL			RWTS			RWPS			RFRA			RIFD			RHTS			RHPS			RBHD			LFHD			RFHD			LBHD			LHIP			RHIP			RASI			LASI			LKNE			LTHI			LANK			LTIP			LTOE			LMT1			LMT5			LHEE			RKNE			RTHI			RANK			RTIP			RTOE			RMT1			RMT5			RHEE			
		X1	Y1	Z1	X2	Y2	Z2	X3	Y3	Z3	X4	Y4	Z4	X5	Y5	Z5	X6	Y6	Z6	X7	Y7	Z7	X8	Y8	Z8	X9	Y9	Z9	X10	Y10	Z10	X11	Y11	Z11	X12	Y12	Z12	X13	Y13	Z13	X14	Y14	Z14	X15	Y15	Z15	X16	Y16	Z16	X17	Y17	Z17	X18	Y18	Z18	X19	Y19	Z19	X20	Y20	Z20	X21	Y21	Z21	X22	Y22	Z22	X23	Y23	Z23	X24	Y24	Z24	X25	Y25	Z25	X26	Y26	Z26	X27	Y27	Z27	X28	Y28	Z28	X29	Y29	Z29	X30	Y30	Z30	X31	Y31	Z31	X32	Y32	Z32	X33	Y33	Z33	X34	Y34	Z34	X35	Y35	Z35	X36	Y36	Z36	X37	Y37	Z37	X38	Y38	Z38	X39	Y39	Z39	X40	Y40	Z40	X41	Y41	Z41	X42	Y42	Z42	X43	Y43	Z43	X44	Y44	Z44	X45	Y45	Z45	X46	Y46	Z46	X47	Y47	Z47	X48	Y48	Z48	X49	Y49	Z49	X50	Y50	Z50	X51	Y51	Z51	X52	Y52	Z52	X53	Y53	Z53	

282	2.81	1043.744384765625	992.8350219726562	401.5125122070312	869.0130004882812	971.2943725585938	408.3006591796875	956.1140747070312	1043.46728515625	404.8717651367188	966.4130249023438	1230.2626953125	141.8625030517578	958.53271484375	1177.588500976562	413.2501220703125	963.5606689453125	1441.82568359375	341.3144836425781	1035.281127929688	1306.021728515625	411.2710876464844	963.7933349609375	1345.268310546875	168.7721405029297	864.6187744140625	1406.386474609375	367.4395141601562	790.9922485351562	1404.10888671875	267.1977844238281	706.9495239257812	1289.757690429688	304.364990234375	656.3477783203125	1082.999633789062	318.9892883300781	750.3456420898438	1062.770385742188	369.6171264648438	677.6824340820312	830.366455078125	243.9738616943359	627.6031494140625	831.4224243164062	311.6905212402344	632.4273071289062	973.8560791015625	311.52490234375	676.850341796875	642.7183837890625	250.1548614501953	619.6468505859375	746.9385375976562	289.2212524414062	663.4249877929688	745.8170166015625	233.318603515625	1137.658325195312	1403.747802734375	282.6617736816406	1202.366821289062	1340.63232421875	301.07177734375	1259.80615234375	1086.337158203125	357.6114501953125	1166.645751953125	1055.299072265625	337.1233215332031	1233.875732421875	846.374755859375	192.1107177734375	1278.158081054688	823.7836303710938	265.1785583496094	1273.925048828125	1002.9921875	342.94287109375	1216.545043945312	655.4036865234375	175.8279266357422	1234.442504882812	742.6155395507812	163.1798858642578	1281.941650390625	737.7921142578125	224.6508636474609	936.4794921875	1630.491455078125	279.625732421875	970.3584594726562	1612.60498046875	67.77458953857422	855.6874389648438	1618.376708984375	120.2503204345703	1056.884887695312	1614.34765625	215.6474456787109	781.8475952148438	910.0069580078125	298.1940002441406	1123.60693359375	927.1536254882812	340.3768615722656	1109.835083007812	932.7505493164062	215.2385864257812	844.9429931640625	921.375244140625	191.9728393554688	841.91748046875	504.4544372558594	62.3828125	794.9301147460938	610.600341796875	154.4667358398438	859.8494873046875	43.65656280517578	-31.26041221618652	838.3788452148438	260.1990966796875	21.67524528503418	832.09912109375	130.0832672119141	-210.9451446533203	890.068359375	105.9006271362305	-181.2525634765625	803.880859375	75.79875183105469	-117.7657318115234	943.40576171875	29.25809097290039	3.152040481567383	1123.965942382812	489.9336242675781	357.1935119628906	1140.88330078125	752.6519165039062	289.0525207519531	1114.987548828125	52.50074768066406	590.7056274414062	1130.351928710938	378.3507080078125	418.1070861816406	1141.641723632812	28.15742683410645	377.9436340332031	1083.255737304688	37.78214645385742	422.4393310546875	1165.540405273438	34.70302581787109	479.4783935546875	1048.318237304688	62.19571685791016	620.6868286132812	
283	2.82	1043.148071289062	991.7887573242188	390.943359375	868.5183715820312	970.0147705078125	399.0988464355469	955.68408203125	1042.171997070312	395.2483520507812	963.0469360351562	1229.30615234375	132.3614044189453	958.0405883789062	1176.153564453125	403.6002197265625	962.0285034179688	1440.582763671875	332.2146911621094	1034.57177734375	1304.7392578125	401.1759338378906	960.5231323242188	1344.299682617188	159.42041015625	863.4689331054688	1404.892333984375	359.30126953125	788.7219848632812	1402.749755859375	259.8881225585938	705.194091796875	1288.154663085938	297.7610168457031	654.9993286132812	1081.418579101562	312.4327392578125	749.535888671875	1061.083740234375	361.9774169921875	675.2841186523438	828.8524169921875	236.8867492675781	626.0458984375	829.8760986328125	305.3204650878906	630.9321899414062	972.302001953125	305.1567687988281	674.1738891601562	641.2254638671875	242.6928558349609	617.582275390625	745.4586791992188	282.66943359375	660.7364501953125	744.3756713867188	226.2415924072266	1135.593872070312	1402.6826171875	271.6354064941406	1200.393432617188	1339.316162109375	289.1260375976562	1258.387451171875	1084.861083984375	344.0896911621094	1164.879150390625	1053.945678710938	324.4574890136719	1230.095825195312	846.146728515625	177.4624176025391	1275.0810546875	822.8291015625	249.9402313232422	1272.198608398438	1001.512817382812	328.831787109375	1212.257080078125	655.1461791992188	160.1250762939453	1230.181396484375	742.3999633789062	147.8445739746094	1278.29638671875	737.1224365234375	208.7992095947266	934.6113891601562	1629.338012695312	271.0903930664062	965.7532348632812	1611.781127929688	58.7652587890625	851.70458984375	1617.490112304688	112.705924987793	1054.1728515625	1613.314208984375	205.5527954101562	780.8157348632812	908.628173828125	289.5382995605469	1122.629150390625	926.2462158203125	329.3457946777344	1108.210815429688	931.8055419921875	204.249755859375	843.08642578125	920.2327270507812	182.8326873779297	839.9959716796875	503.2484130859375	53.50090408325195	794.2557983398438	609.7072143554688	145.3664703369141	860.09912109375	41.91208648681641	-36.71541213989258	837.5946655273438	258.1557006835938	14.8076343536377	828.5936279296875	125.9930801391602	-216.7318420410156	887.2476196289062	102.4565734863281	-187.7760925292969	802.4003295898438	72.33251953125	-122.5024642944336	944.53125	28.50013732910156	-3.740147590637207	1123.409790039062	489.6596374511719	348.8592834472656	1139.700317382812	751.8760375976562	278.8548583984375	1115.8154296875	55.56546783447266	589.8607177734375	1130.288452148438	378.8109741210938	411.6186218261719	1141.637573242188	28.13742065429688	377.8822937011719	1083.50537109375	38.03067398071289	422.137939453125	1165.894165039062	35.18984222412109	478.8671264648438	1049.298583984375	66.39618682861328	619.925048828125	
284	2.83	1042.345947265625	990.95068359375	380.1010131835938	867.8090209960938	969.0139770507812	389.6792297363281	955.027099609375	1041.037353515625	385.3600158691406	959.4412841796875	1228.619506835938	122.7049407958984	957.3150634765625	1174.951171875	393.7871398925781	960.2819213867188	1439.570922851562	322.9934997558594	1033.623413085938	1303.665649414062	390.9549560546875	957.0368041992188	1343.589477539062	149.9573516845703	862.0810546875	1403.649047851562	351.0048828125	786.24609375	1401.67919921875	252.42333984375	703.22021484375	1286.825927734375	290.927001953125	653.5780639648438	1080.056030273438	305.6567687988281	748.5857543945312	1059.682983398438	354.0960388183594	672.8671875	827.5745239257812	229.5891265869141	624.5030517578125	828.5599365234375	298.7877502441406	629.408447265625	970.9625854492188	298.5530700683594	671.4909057617188	639.9674682617188	235.0211944580078	615.5184326171875	744.213134765625	275.9009704589844	658.0426635742188	743.1661376953125	218.9529724121094	1133.276977539062	1401.843383789062	260.5190124511719	1198.134887695312	1338.209106445312	277.0911865234375	1256.621459960938	1083.627319335938	330.4717712402344	1162.783935546875	1052.810424804688	311.6517028808594	1226.04248046875	846.0444946289062	162.9393310546875	1271.702392578125	822.0675048828125	234.8406982421875	1270.1240234375	1000.281799316406	314.6800231933594	1207.716552734375	655.0049438476562	144.6806793212891	1225.62744140625	742.2854614257812	132.7347869873047	1274.362548828125	736.6126708984375	193.1659088134766	932.5636596679688	1628.454833984375	262.4247741699219	961.0060424804688	1611.2021484375	49.66499710083008	847.5830688476562	1616.849975585938	105.0452117919922	1051.27685546875	1612.556030273438	195.3708038330078	779.50341796875	907.5592651367188	280.7070007324219	1121.412841796875	925.4849243164062	318.0609436035156	1106.326416015625	931.0460205078125	192.9806976318359	840.9574584960938	919.3594970703125	173.5083465576172	838.2156982421875	502.2395629882812	44.28356552124023	793.3948364257812	609.1790161132812	135.7242279052734	860.5790405273438	40.22736358642578	-40.70241165161133	837.0289916992188	256.0917358398438	8.308123588562012	825.8851928710938	120.6828994750977	-221.6363067626953	885.1084594726562	97.92331695556641	-193.1056976318359	801.4352416992188	68.47484588623047	-126.0739593505859	945.706787109375	27.77232360839844	-8.920559883117676	1122.74951171875	489.5111389160156	340.0625610351562	1138.302734375	751.2423095703125	268.3525695800781	1116.742309570312	58.99393081665039	588.8092041015625	1130.195678710938	379.4548645019531	404.6836853027344	1141.612670898438	28.1270694732666	377.8430480957031	1083.817749023438	38.35586547851562	421.7949829101562	1166.350463867188	35.78655624389648	478.1266479492188	1050.380859375	71.12501525878906	618.88525390625	
285	2.84	1041.34716796875	990.3388671875	368.9763793945312	866.8934326171875	968.3261108398438	380.0437622070312	954.140380859375	1040.065185546875	375.1543884277344	955.596435546875	1228.22509765625	112.8881607055664	956.3535766601562	1174.002197265625	383.8132629394531	958.3199462890625	1438.815551757812	313.6513366699219	1032.454345703125	1302.817749023438	380.610595703125	953.3405151367188	1343.15673828125	140.3864288330078	860.4552001953125	1402.674438476562	342.5525512695312	783.5654296875	1400.912841796875	244.7998809814453	701.0285034179688	1285.79296875	283.8644409179688	652.0643920898438	1078.934692382812	298.6640930175781	747.49609375	1058.574584960938	345.9735717773438	670.4337768554688	826.5484619140625	222.0846862792969	622.9727783203125	827.4844360351562	292.0861511230469	627.8422241210938	969.8509521484375	291.7168579101562	668.8347778320312	638.9617309570312	227.1640167236328	613.4815673828125	743.2103271484375	268.920166015625	655.3603515625	742.19580078125	211.4663696289062	1130.715087890625	1401.251708984375	249.3162384033203	1195.603271484375	1337.338134765625	264.97607421875	1254.514770507812	1082.663330078125	316.7785949707031	1160.372680664062	1051.914184570312	298.7352294921875	1221.730224609375	846.0747680664062	148.5721893310547	1268.044921875	821.5169067382812	219.9089050292969	1267.715454101562	999.3284912109375	300.512939453125	1202.952758789062	654.9931030273438	129.5343627929688	1220.794555664062	742.2918090820312	117.8952407836914	1270.169067382812	736.2776489257812	177.7810668945312	930.33935546875	1627.873168945312	253.6274566650391	956.1217041015625	1610.898559570312	40.47514343261719	843.3344116210938	1616.486938476562	97.2672119140625	1048.200561523438	1612.0908203125	185.0984649658203	777.91455078125	906.8148193359375	271.6903686523438	1119.976440429688	924.8983154296875	306.5115661621094	1104.148193359375	930.4607543945312	181.4437255859375	838.5343017578125	918.7711181640625	164.0049743652344	836.5841064453125	501.4065246582031	34.85823822021484	792.3372192382812	608.9522705078125	125.7014846801758	861.1820678710938	38.75314331054688	-43.60015869140625	836.6276245117188	254.1228942871094	2.043503046035767	823.9896240234375	114.3905410766602	-225.9827575683594	883.64990234375	92.54589080810547	-197.5459899902344	800.9352416992188	64.45330047607422	-128.8715667724609	946.82861328125	27.22177124023438	-12.71806049346924	1121.984497070312	489.4725341796875	330.7138366699219	1136.684204101562	750.75341796875	257.5149536132812	1117.796508789062	62.81707382202148	587.4963989257812	1130.098510742188	380.2821350097656	397.2176818847656	1141.563110351562	28.1283016204834	377.8482055664062	1084.196166992188	38.76412963867188	421.4076538085938	1166.925170898438	36.47962188720703	477.243896484375	1051.612426757812	76.42214965820312	617.4883422851562	
